<svg xmlns="http://www.w3.org/2000/svg" width="61" height="61" viewBox="0 0 61 61" fill="none">
  <g id="hairdressing">
    <path id="Vector" d="M51.5359 29.7238L41.8692 39.3905C41.7599 39.4998 41.6312 39.5906 41.4905 39.6553L35.6988 42.2197L17.8482 24.3691L20.4126 18.5774C20.4772 18.4368 20.568 18.308 20.6773 18.1987L30.344 8.53199C31.0022 7.87377 32.1541 7.87377 32.8124 8.53199C33.4706 9.19021 33.4706 10.3421 32.8124 11.0003L23.1457 20.667L29.9374 23.2314C30.0477 23.3417 30.1764 23.4705 30.317 23.5351L36.1087 26.0995L53.9593 43.9501L51.3948 49.7418L51.3948 49.7418C51.2299 50.2464 50.8887 50.618 50.4815 50.7552C50.0744 50.8925 49.6287 50.7722 49.3162 50.4597L45.654 46.7975L35.9863 56.4642C35.7316 56.7189 35.3393 56.7189 35.0846 56.4642C34.8299 56.2095 34.8299 55.8172 35.0846 55.5625L38.7468 51.9003L42.4091 48.238L39.0112 44.8402C38.7004 44.5294 38.1891 44.5294 37.8783 44.8402C37.5675 45.151 37.5675 45.6624 37.8783 45.9732L41.2762 49.3711C41.587 49.6819 42.0984 49.6819 42.4091 49.3711C42.7199 49.0603 42.7199 48.5489 42.4091 48.238L38.0112 43.8402L44.4091 37.4423C44.4091 37.4423 50.0987 31.7527 51.5359 29.7238ZM19.4256 24.9427L17.8417 26.5266L17.4979 27.1421L16.0405 28.5995L19.4256 32.0182L22.811 35.4368L29.209 28.5582L25.7903 25.1731L24.3329 23.7157L23.7174 23.3718L22.1335 21.7879L21.4173 21.0716L19.4256 24.9427ZM22.2039 26.898L22.7175 26.3844L26.1362 29.77L26.6225 30.2554L22.2039 26.898ZM27.1084 30.5401L27.5947 31.0255L30.9802 34.411L31.4665 34.8964L27.1084 30.5401ZM29.3012 32.7329L29.7875 33.2183L33.173 36.6038L33.6593 37.0892L29.3012 32.7329ZM35.0324 38.4641L35.5188 38.9495L38.9043 42.335L39.3907 42.8204L35.0324 38.4641ZM41.7629 44.1946L42.2493 44.68L45.6348 48.0655L46.1212 48.5509L41.7629 44.1946ZM47.4941 49.925L47.9805 50.4104L51.3659 53.7958L51.8523 54.2812L47.4941 49.925ZM53.2256 55.6555L53.712 56.1409L57.0975 59.5264L57.5839 60.0118L53.2256 55.6555Z" fill="#9A563A"/>
  </g>
</svg>
