<?xml version="1.0" encoding="UTF-8"?>
<svg xmlns="http://www.w3.org/2000/svg" xmlns:xlink="http://www.w3.org/1999/xlink" viewBox="0 0 283.46 283.46">
  <defs>
    <style>
      .cls-1, .cls-2, .cls-3, .cls-4, .cls-5, .cls-6, .cls-7, .cls-8, .cls-9, .cls-10 {
        font-family: Montserrat-Medium, Montserrat;
        font-size: 4.09px;
        font-weight: 500;
      }

      .cls-1, .cls-9 {
        letter-spacing: .28em;
      }

      .cls-2, .cls-4 {
        letter-spacing: .3em;
      }

      .cls-2, .cls-11, .cls-6, .cls-7, .cls-8, .cls-9 {
        fill: #010101;
      }

      .cls-12 {
        fill: url(#New_Gradient_Swatch_4-13);
      }

      .cls-3, .cls-6 {
        letter-spacing: .3em;
      }

      .cls-13 {
        letter-spacing: .18em;
      }

      .cls-14 {
        fill: url(#New_Gradient_Swatch_4-29);
      }

      .cls-15 {
        fill: url(#New_Gradient_Swatch_4-40);
      }

      .cls-16 {
        fill: url(#linear-gradient-2);
      }

      .cls-17 {
        fill: url(#New_Gradient_Swatch_4-32);
      }

      .cls-18, .cls-19 {
        fill: #fff;
      }

      .cls-20 {
        fill: url(#New_Gradient_Swatch_4-25);
      }

      .cls-21 {
        mix-blend-mode: screen;
        opacity: .2;
      }

      .cls-22 {
        fill: url(#New_Gradient_Swatch_4-7);
      }

      .cls-23 {
        fill: url(#New_Gradient_Swatch_3-9);
      }

      .cls-24 {
        fill: url(#New_Gradient_Swatch_4-26);
      }

      .cls-25 {
        fill: url(#New_Gradient_Swatch_3-24);
      }

      .cls-26 {
        fill: url(#New_Gradient_Swatch_3-39);
      }

      .cls-5, .cls-8 {
        letter-spacing: .25em;
      }

      .cls-27 {
        fill: url(#New_Gradient_Swatch_4-35);
      }

      .cls-28 {
        fill: url(#New_Gradient_Swatch_3-28);
      }

      .cls-29 {
        fill: url(#New_Gradient_Swatch_4-37);
      }

      .cls-30 {
        fill: url(#New_Gradient_Swatch_4-14);
      }

      .cls-31 {
        fill: url(#New_Gradient_Swatch_3-36);
      }

      .cls-32 {
        fill: url(#New_Gradient_Swatch_3-35);
      }

      .cls-33 {
        fill: url(#New_Gradient_Swatch_3-27);
      }

      .cls-34 {
        fill: url(#New_Gradient_Swatch_4-33);
      }

      .cls-35 {
        fill: url(#New_Gradient_Swatch_3-40);
      }

      .cls-36 {
        fill: url(#New_Gradient_Swatch_3-12);
      }

      .cls-37 {
        fill: url(#New_Gradient_Swatch_4-15);
      }

      .cls-38 {
        fill: url(#New_Gradient_Swatch_3-23);
      }

      .cls-39 {
        isolation: isolate;
      }

      .cls-40 {
        fill: url(#New_Gradient_Swatch_3-32);
      }

      .cls-41 {
        fill: url(#New_Gradient_Swatch_4-2);
      }

      .cls-42 {
        fill: url(#New_Gradient_Swatch_4-5);
      }

      .cls-43 {
        fill: url(#New_Gradient_Swatch_3-8);
      }

      .cls-44 {
        fill: url(#New_Gradient_Swatch_4-23);
      }

      .cls-45 {
        fill: url(#New_Gradient_Swatch_3-19);
      }

      .cls-46 {
        fill: url(#New_Gradient_Swatch_4-6);
      }

      .cls-47 {
        fill: url(#New_Gradient_Swatch_3-20);
      }

      .cls-48 {
        fill: url(#New_Gradient_Swatch_4-27);
      }

      .cls-11, .cls-19 {
        font-family: Montserrat-Bold, Montserrat;
        font-size: 10.95px;
        font-weight: 700;
      }

      .cls-49 {
        fill: url(#New_Gradient_Swatch_3-22);
      }

      .cls-50 {
        fill: url(#New_Gradient_Swatch_4-19);
      }

      .cls-51 {
        fill: url(#New_Gradient_Swatch_3-37);
      }

      .cls-52 {
        letter-spacing: .2em;
      }

      .cls-53 {
        fill: url(#New_Gradient_Swatch_3-29);
      }

      .cls-54 {
        fill: url(#New_Gradient_Swatch_4-28);
      }

      .cls-55 {
        fill: url(#New_Gradient_Swatch_4-16);
      }

      .cls-56 {
        fill: url(#New_Gradient_Swatch_3-21);
      }

      .cls-57 {
        fill: url(#New_Gradient_Swatch_3-16);
      }

      .cls-58 {
        fill: url(#New_Gradient_Swatch_4-22);
      }

      .cls-59 {
        fill: url(#New_Gradient_Swatch_3-4);
      }

      .cls-60 {
        letter-spacing: .2em;
      }

      .cls-61 {
        fill: url(#New_Gradient_Swatch_4-39);
      }

      .cls-62 {
        fill: url(#New_Gradient_Swatch_4-12);
      }

      .cls-63 {
        fill: url(#New_Gradient_Swatch_3-14);
      }

      .cls-64 {
        fill: url(#New_Gradient_Swatch_4-38);
      }

      .cls-65 {
        fill: url(#New_Gradient_Swatch_4);
      }

      .cls-66 {
        fill: url(#New_Gradient_Swatch_4-24);
      }

      .cls-67 {
        fill: url(#New_Gradient_Swatch_4-3);
      }

      .cls-7, .cls-10 {
        letter-spacing: .29em;
      }

      .cls-68 {
        fill: url(#New_Gradient_Swatch_4-17);
      }

      .cls-69 {
        letter-spacing: .19em;
      }

      .cls-70 {
        fill: url(#New_Gradient_Swatch_3-38);
      }

      .cls-71 {
        fill: url(#New_Gradient_Swatch_3-11);
      }

      .cls-72 {
        fill: url(#New_Gradient_Swatch_3-2);
      }

      .cls-73 {
        fill: url(#New_Gradient_Swatch_3);
      }

      .cls-74 {
        fill: url(#New_Gradient_Swatch_3-3);
      }

      .cls-75 {
        fill: url(#New_Gradient_Swatch_3-7);
      }

      .cls-76 {
        fill: url(#New_Gradient_Swatch_3-31);
      }

      .cls-77 {
        fill: url(#New_Gradient_Swatch_3-18);
      }

      .cls-78 {
        fill: url(#New_Gradient_Swatch_4-8);
      }

      .cls-79 {
        fill: url(#New_Gradient_Swatch_4-9);
      }

      .cls-80 {
        fill: url(#New_Gradient_Swatch_3-33);
      }

      .cls-81 {
        fill: url(#New_Gradient_Swatch_3-34);
      }

      .cls-82 {
        fill: none;
      }

      .cls-82, .cls-83 {
        font-family: Montserrat-Light, Montserrat;
        font-size: 4.95px;
        font-weight: 300;
      }

      .cls-84 {
        fill: url(#New_Gradient_Swatch_4-18);
      }

      .cls-85 {
        fill: url(#New_Gradient_Swatch_3-10);
      }

      .cls-86 {
        fill: url(#New_Gradient_Swatch_4-11);
      }

      .cls-87 {
        fill: url(#New_Gradient_Swatch_4-36);
      }

      .cls-88 {
        fill: url(#New_Gradient_Swatch_4-20);
      }

      .cls-89 {
        fill: url(#New_Gradient_Swatch_3-17);
      }

      .cls-90 {
        fill: url(#New_Gradient_Swatch_4-21);
      }

      .cls-91 {
        mix-blend-mode: overlay;
      }

      .cls-92 {
        fill: url(#New_Gradient_Swatch_3-5);
      }

      .cls-93 {
        fill: url(#New_Gradient_Swatch_4-34);
      }

      .cls-94 {
        fill: url(#New_Gradient_Swatch_3-30);
      }

      .cls-95 {
        fill: url(#linear-gradient);
      }

      .cls-96 {
        fill: url(#New_Gradient_Swatch_3-6);
      }

      .cls-97 {
        letter-spacing: .18em;
      }

      .cls-98 {
        fill: url(#New_Gradient_Swatch_3-15);
      }

      .cls-99 {
        fill: url(#New_Gradient_Swatch_4-10);
      }

      .cls-100 {
        fill: #231f20;
      }

      .cls-101 {
        fill: url(#New_Gradient_Swatch_4-4);
      }

      .cls-102 {
        fill: url(#New_Gradient_Swatch_3-13);
      }

      .cls-103 {
        fill: url(#New_Gradient_Swatch_3-25);
      }

      .cls-104 {
        fill: url(#New_Gradient_Swatch_3-26);
      }

      .cls-105 {
        fill: url(#New_Gradient_Swatch_4-30);
      }

      .cls-106 {
        fill: url(#New_Gradient_Swatch_4-31);
      }
    </style>
    <linearGradient id="linear-gradient" x1="99.83" y1="97.81" x2="189.33" y2="150.72" gradientUnits="userSpaceOnUse">
      <stop offset=".1" stop-color="#9e5424"/>
      <stop offset=".3" stop-color="#e7aa37"/>
      <stop offset=".48" stop-color="#fdcb76"/>
      <stop offset=".58" stop-color="#e7aa37"/>
      <stop offset=".88" stop-color="#62270e"/>
    </linearGradient>
    <linearGradient id="linear-gradient-2" x1="105.46" y1="88.3" x2="194.96" y2="141.21" xlink:href="#linear-gradient"/>
    <linearGradient id="New_Gradient_Swatch_3" data-name="New Gradient Swatch 3" x1="69.99" y1="178.52" x2="214.28" y2="178.52" gradientTransform="translate(-84.6 152.79) rotate(-45)" gradientUnits="userSpaceOnUse">
      <stop offset=".1" stop-color="#9e5424"/>
      <stop offset=".3" stop-color="#e7aa37"/>
      <stop offset=".48" stop-color="#f4f19a"/>
      <stop offset=".58" stop-color="#e7aa37"/>
      <stop offset=".88" stop-color="#62270e"/>
    </linearGradient>
    <linearGradient id="New_Gradient_Swatch_4" data-name="New Gradient Swatch 4" x1="69.99" y1="178.52" x2="214.28" y2="178.52" gradientTransform="translate(167.87 -48.22) rotate(45)" gradientUnits="userSpaceOnUse">
      <stop offset="0" stop-color="#fff"/>
      <stop offset=".17" stop-color="#fff"/>
      <stop offset=".17" stop-color="#010101"/>
      <stop offset=".42" stop-color="#010101"/>
      <stop offset=".42" stop-color="#fff"/>
      <stop offset=".68" stop-color="#fff"/>
      <stop offset=".68" stop-color="#010101"/>
      <stop offset=".85" stop-color="#010101"/>
      <stop offset=".85" stop-color="#fff"/>
    </linearGradient>
    <linearGradient id="New_Gradient_Swatch_3-2" data-name="New Gradient Swatch 3" x1="66.8" y1="196.89" x2="216.66" y2="196.89" gradientTransform="translate(-97.71 157.89) rotate(-45)" xlink:href="#New_Gradient_Swatch_3"/>
    <linearGradient id="New_Gradient_Swatch_3-3" data-name="New Gradient Swatch 3" x1="66.8" y1="196.89" x2="216.66" y2="196.89" gradientTransform="translate(-97.71 157.89) rotate(-45)" xlink:href="#New_Gradient_Swatch_3"/>
    <linearGradient id="New_Gradient_Swatch_3-4" data-name="New Gradient Swatch 3" x1="66.8" y1="196.89" x2="216.66" y2="196.89" gradientTransform="translate(-97.71 157.89) rotate(-45)" xlink:href="#New_Gradient_Swatch_3"/>
    <linearGradient id="New_Gradient_Swatch_3-5" data-name="New Gradient Swatch 3" x1="66.8" y1="196.89" x2="216.66" y2="196.89" gradientTransform="translate(-97.71 157.89) rotate(-45)" xlink:href="#New_Gradient_Swatch_3"/>
    <linearGradient id="New_Gradient_Swatch_3-6" data-name="New Gradient Swatch 3" x1="66.8" y1="196.89" x2="216.66" y2="196.89" gradientTransform="translate(-97.71 157.89) rotate(-45)" xlink:href="#New_Gradient_Swatch_3"/>
    <linearGradient id="New_Gradient_Swatch_3-7" data-name="New Gradient Swatch 3" x1="66.8" y1="196.89" x2="216.66" y2="196.89" gradientTransform="translate(-97.71 157.89) rotate(-45)" xlink:href="#New_Gradient_Swatch_3"/>
    <linearGradient id="New_Gradient_Swatch_3-8" data-name="New Gradient Swatch 3" x1="66.8" y1="196.89" x2="216.66" y2="196.89" gradientTransform="translate(-97.71 157.89) rotate(-45)" xlink:href="#New_Gradient_Swatch_3"/>
    <linearGradient id="New_Gradient_Swatch_3-9" data-name="New Gradient Swatch 3" x1="66.8" y1="196.89" x2="216.66" y2="196.89" gradientTransform="translate(-97.71 157.89) rotate(-45)" xlink:href="#New_Gradient_Swatch_3"/>
    <linearGradient id="New_Gradient_Swatch_3-10" data-name="New Gradient Swatch 3" x1="66.8" y1="196.89" x2="216.66" y2="196.89" gradientTransform="translate(-97.71 157.89) rotate(-45)" xlink:href="#New_Gradient_Swatch_3"/>
    <linearGradient id="New_Gradient_Swatch_3-11" data-name="New Gradient Swatch 3" x1="66.8" y1="196.89" x2="216.66" y2="196.89" gradientTransform="translate(-97.71 157.89) rotate(-45)" xlink:href="#New_Gradient_Swatch_3"/>
    <linearGradient id="New_Gradient_Swatch_3-12" data-name="New Gradient Swatch 3" x1="66.8" y1="196.89" x2="216.66" y2="196.89" gradientTransform="translate(-97.71 157.89) rotate(-45)" xlink:href="#New_Gradient_Swatch_3"/>
    <linearGradient id="New_Gradient_Swatch_3-13" data-name="New Gradient Swatch 3" x1="66.8" y1="196.89" x2="216.66" y2="196.89" gradientTransform="translate(-97.71 157.89) rotate(-45)" xlink:href="#New_Gradient_Swatch_3"/>
    <linearGradient id="New_Gradient_Swatch_3-14" data-name="New Gradient Swatch 3" x1="66.8" y1="196.89" x2="216.66" y2="196.89" gradientTransform="translate(-97.71 157.89) rotate(-45)" xlink:href="#New_Gradient_Swatch_3"/>
    <linearGradient id="New_Gradient_Swatch_3-15" data-name="New Gradient Swatch 3" x1="66.8" y1="196.89" x2="216.66" y2="196.89" gradientTransform="translate(-97.71 157.89) rotate(-45)" xlink:href="#New_Gradient_Swatch_3"/>
    <linearGradient id="New_Gradient_Swatch_3-16" data-name="New Gradient Swatch 3" x1="66.8" y1="196.89" x2="216.66" y2="196.89" gradientTransform="translate(-97.71 157.89) rotate(-45)" xlink:href="#New_Gradient_Swatch_3"/>
    <linearGradient id="New_Gradient_Swatch_3-17" data-name="New Gradient Swatch 3" x1="66.8" y1="196.89" x2="216.66" y2="196.89" gradientTransform="translate(-97.71 157.89) rotate(-45)" xlink:href="#New_Gradient_Swatch_3"/>
    <linearGradient id="New_Gradient_Swatch_3-18" data-name="New Gradient Swatch 3" x1="66.8" y1="196.89" x2="216.66" y2="196.89" gradientTransform="translate(-97.71 157.89) rotate(-45)" xlink:href="#New_Gradient_Swatch_3"/>
    <linearGradient id="New_Gradient_Swatch_3-19" data-name="New Gradient Swatch 3" x1="66.8" y1="196.89" x2="216.66" y2="196.89" gradientTransform="translate(-97.71 157.89) rotate(-45)" xlink:href="#New_Gradient_Swatch_3"/>
    <linearGradient id="New_Gradient_Swatch_3-20" data-name="New Gradient Swatch 3" x1="66.8" y1="196.89" x2="216.66" y2="196.89" gradientTransform="translate(-97.71 157.89) rotate(-45)" xlink:href="#New_Gradient_Swatch_3"/>
    <linearGradient id="New_Gradient_Swatch_3-21" data-name="New Gradient Swatch 3" x1="66.8" y1="196.89" x2="216.66" y2="196.89" gradientTransform="translate(-97.71 157.89) rotate(-45)" xlink:href="#New_Gradient_Swatch_3"/>
    <linearGradient id="New_Gradient_Swatch_3-22" data-name="New Gradient Swatch 3" x1="66.8" y1="196.89" x2="216.66" y2="196.89" gradientTransform="translate(-97.71 157.89) rotate(-45)" xlink:href="#New_Gradient_Swatch_3"/>
    <linearGradient id="New_Gradient_Swatch_3-23" data-name="New Gradient Swatch 3" x1="66.8" y1="196.89" x2="216.66" y2="196.89" gradientTransform="translate(-97.71 157.89) rotate(-45)" xlink:href="#New_Gradient_Swatch_3"/>
    <linearGradient id="New_Gradient_Swatch_3-24" data-name="New Gradient Swatch 3" x1="66.8" y1="196.89" x2="216.66" y2="196.89" gradientTransform="translate(-97.71 157.89) rotate(-45)" xlink:href="#New_Gradient_Swatch_3"/>
    <linearGradient id="New_Gradient_Swatch_3-25" data-name="New Gradient Swatch 3" x1="66.8" y1="196.89" x2="216.66" y2="196.89" gradientTransform="translate(-97.71 157.89) rotate(-45)" xlink:href="#New_Gradient_Swatch_3"/>
    <linearGradient id="New_Gradient_Swatch_3-26" data-name="New Gradient Swatch 3" x1="66.8" y1="196.89" x2="216.66" y2="196.89" gradientTransform="translate(-97.71 157.89) rotate(-45)" xlink:href="#New_Gradient_Swatch_3"/>
    <linearGradient id="New_Gradient_Swatch_3-27" data-name="New Gradient Swatch 3" x1="66.8" y1="196.89" x2="216.66" y2="196.89" gradientTransform="translate(-97.71 157.89) rotate(-45)" xlink:href="#New_Gradient_Swatch_3"/>
    <linearGradient id="New_Gradient_Swatch_3-28" data-name="New Gradient Swatch 3" x1="66.8" y1="196.89" x2="216.66" y2="196.89" gradientTransform="translate(-97.71 157.89) rotate(-45)" xlink:href="#New_Gradient_Swatch_3"/>
    <linearGradient id="New_Gradient_Swatch_3-29" data-name="New Gradient Swatch 3" x1="66.8" y1="196.89" x2="216.66" y2="196.89" gradientTransform="translate(-97.71 157.89) rotate(-45)" xlink:href="#New_Gradient_Swatch_3"/>
    <linearGradient id="New_Gradient_Swatch_3-30" data-name="New Gradient Swatch 3" x1="66.8" y1="196.89" x2="216.66" y2="196.89" gradientTransform="translate(-97.71 157.89) rotate(-45)" xlink:href="#New_Gradient_Swatch_3"/>
    <linearGradient id="New_Gradient_Swatch_3-31" data-name="New Gradient Swatch 3" x1="66.8" y1="196.89" x2="216.66" y2="196.89" gradientTransform="translate(-97.71 157.89) rotate(-45)" xlink:href="#New_Gradient_Swatch_3"/>
    <linearGradient id="New_Gradient_Swatch_3-32" data-name="New Gradient Swatch 3" x1="66.8" y1="196.89" x2="216.66" y2="196.89" gradientTransform="translate(-97.71 157.89) rotate(-45)" xlink:href="#New_Gradient_Swatch_3"/>
    <linearGradient id="New_Gradient_Swatch_3-33" data-name="New Gradient Swatch 3" x1="66.8" y1="196.89" x2="216.66" y2="196.89" gradientTransform="translate(-97.71 157.89) rotate(-45)" xlink:href="#New_Gradient_Swatch_3"/>
    <linearGradient id="New_Gradient_Swatch_3-34" data-name="New Gradient Swatch 3" x1="66.8" y1="196.89" x2="216.66" y2="196.89" gradientTransform="translate(-97.71 157.89) rotate(-45)" xlink:href="#New_Gradient_Swatch_3"/>
    <linearGradient id="New_Gradient_Swatch_3-35" data-name="New Gradient Swatch 3" x1="66.8" y1="196.89" x2="216.66" y2="196.89" gradientTransform="translate(-97.71 157.89) rotate(-45)" xlink:href="#New_Gradient_Swatch_3"/>
    <linearGradient id="New_Gradient_Swatch_3-36" data-name="New Gradient Swatch 3" x1="66.8" y1="196.89" x2="216.66" y2="196.89" gradientTransform="translate(-97.71 157.89) rotate(-45)" xlink:href="#New_Gradient_Swatch_3"/>
    <linearGradient id="New_Gradient_Swatch_3-37" data-name="New Gradient Swatch 3" x1="66.8" y1="196.89" x2="216.66" y2="196.89" gradientTransform="translate(-97.71 157.89) rotate(-45)" xlink:href="#New_Gradient_Swatch_3"/>
    <linearGradient id="New_Gradient_Swatch_3-38" data-name="New Gradient Swatch 3" x1="66.8" y1="196.89" x2="216.66" y2="196.89" gradientTransform="translate(-97.71 157.89) rotate(-45)" xlink:href="#New_Gradient_Swatch_3"/>
    <linearGradient id="New_Gradient_Swatch_3-39" data-name="New Gradient Swatch 3" x1="66.8" y1="196.89" x2="216.66" y2="196.89" gradientTransform="translate(-97.71 157.89) rotate(-45)" xlink:href="#New_Gradient_Swatch_3"/>
    <linearGradient id="New_Gradient_Swatch_3-40" data-name="New Gradient Swatch 3" x1="66.8" y1="196.89" x2="216.66" y2="196.89" gradientTransform="translate(-97.71 157.89) rotate(-45)" xlink:href="#New_Gradient_Swatch_3"/>
    <linearGradient id="New_Gradient_Swatch_4-2" data-name="New Gradient Swatch 4" x1="66.8" y1="196.89" x2="216.66" y2="196.89" gradientTransform="translate(180.73 -42.55) rotate(45)" xlink:href="#New_Gradient_Swatch_4"/>
    <linearGradient id="New_Gradient_Swatch_4-3" data-name="New Gradient Swatch 4" x1="66.8" y1="196.89" x2="216.66" y2="196.89" gradientTransform="translate(180.73 -42.55) rotate(45)" xlink:href="#New_Gradient_Swatch_4"/>
    <linearGradient id="New_Gradient_Swatch_4-4" data-name="New Gradient Swatch 4" x1="66.8" y1="196.89" x2="216.66" y2="196.89" gradientTransform="translate(180.73 -42.55) rotate(45)" xlink:href="#New_Gradient_Swatch_4"/>
    <linearGradient id="New_Gradient_Swatch_4-5" data-name="New Gradient Swatch 4" x1="66.8" y1="196.89" x2="216.66" y2="196.89" gradientTransform="translate(180.73 -42.55) rotate(45)" xlink:href="#New_Gradient_Swatch_4"/>
    <linearGradient id="New_Gradient_Swatch_4-6" data-name="New Gradient Swatch 4" x1="66.8" y1="196.89" x2="216.66" y2="196.89" gradientTransform="translate(180.73 -42.55) rotate(45)" xlink:href="#New_Gradient_Swatch_4"/>
    <linearGradient id="New_Gradient_Swatch_4-7" data-name="New Gradient Swatch 4" x1="66.8" y1="196.89" x2="216.66" y2="196.89" gradientTransform="translate(180.73 -42.55) rotate(45)" xlink:href="#New_Gradient_Swatch_4"/>
    <linearGradient id="New_Gradient_Swatch_4-8" data-name="New Gradient Swatch 4" x1="66.8" y1="196.89" x2="216.66" y2="196.89" gradientTransform="translate(180.73 -42.55) rotate(45)" xlink:href="#New_Gradient_Swatch_4"/>
    <linearGradient id="New_Gradient_Swatch_4-9" data-name="New Gradient Swatch 4" x1="66.8" y1="196.89" x2="216.66" y2="196.89" gradientTransform="translate(180.73 -42.55) rotate(45)" xlink:href="#New_Gradient_Swatch_4"/>
    <linearGradient id="New_Gradient_Swatch_4-10" data-name="New Gradient Swatch 4" x1="66.8" y1="196.89" x2="216.66" y2="196.89" gradientTransform="translate(180.73 -42.55) rotate(45)" xlink:href="#New_Gradient_Swatch_4"/>
    <linearGradient id="New_Gradient_Swatch_4-11" data-name="New Gradient Swatch 4" x1="66.8" y1="196.89" x2="216.66" y2="196.89" gradientTransform="translate(180.73 -42.55) rotate(45)" xlink:href="#New_Gradient_Swatch_4"/>
    <linearGradient id="New_Gradient_Swatch_4-12" data-name="New Gradient Swatch 4" x1="66.8" y1="196.89" x2="216.66" y2="196.89" gradientTransform="translate(180.73 -42.55) rotate(45)" xlink:href="#New_Gradient_Swatch_4"/>
    <linearGradient id="New_Gradient_Swatch_4-13" data-name="New Gradient Swatch 4" x1="66.8" y1="196.89" x2="216.66" y2="196.89" gradientTransform="translate(180.73 -42.55) rotate(45)" xlink:href="#New_Gradient_Swatch_4"/>
    <linearGradient id="New_Gradient_Swatch_4-14" data-name="New Gradient Swatch 4" x1="66.8" y1="196.89" x2="216.66" y2="196.89" gradientTransform="translate(180.73 -42.55) rotate(45)" xlink:href="#New_Gradient_Swatch_4"/>
    <linearGradient id="New_Gradient_Swatch_4-15" data-name="New Gradient Swatch 4" x1="66.8" y1="196.89" x2="216.66" y2="196.89" gradientTransform="translate(180.73 -42.55) rotate(45)" xlink:href="#New_Gradient_Swatch_4"/>
    <linearGradient id="New_Gradient_Swatch_4-16" data-name="New Gradient Swatch 4" x1="66.8" y1="196.89" x2="216.66" y2="196.89" gradientTransform="translate(180.73 -42.55) rotate(45)" xlink:href="#New_Gradient_Swatch_4"/>
    <linearGradient id="New_Gradient_Swatch_4-17" data-name="New Gradient Swatch 4" x1="66.8" y1="196.89" x2="216.66" y2="196.89" gradientTransform="translate(180.73 -42.55) rotate(45)" xlink:href="#New_Gradient_Swatch_4"/>
    <linearGradient id="New_Gradient_Swatch_4-18" data-name="New Gradient Swatch 4" x1="66.8" y1="196.89" x2="216.66" y2="196.89" gradientTransform="translate(180.73 -42.55) rotate(45)" xlink:href="#New_Gradient_Swatch_4"/>
    <linearGradient id="New_Gradient_Swatch_4-19" data-name="New Gradient Swatch 4" x1="66.8" y1="196.89" x2="216.66" y2="196.89" gradientTransform="translate(180.73 -42.55) rotate(45)" xlink:href="#New_Gradient_Swatch_4"/>
    <linearGradient id="New_Gradient_Swatch_4-20" data-name="New Gradient Swatch 4" x1="66.8" y1="196.89" x2="216.66" y2="196.89" gradientTransform="translate(180.73 -42.55) rotate(45)" xlink:href="#New_Gradient_Swatch_4"/>
    <linearGradient id="New_Gradient_Swatch_4-21" data-name="New Gradient Swatch 4" x1="66.8" y1="196.89" x2="216.66" y2="196.89" gradientTransform="translate(180.73 -42.55) rotate(45)" xlink:href="#New_Gradient_Swatch_4"/>
    <linearGradient id="New_Gradient_Swatch_4-22" data-name="New Gradient Swatch 4" x1="66.8" y1="196.89" x2="216.66" y2="196.89" gradientTransform="translate(180.73 -42.55) rotate(45)" xlink:href="#New_Gradient_Swatch_4"/>
    <linearGradient id="New_Gradient_Swatch_4-23" data-name="New Gradient Swatch 4" x1="66.8" y1="196.89" x2="216.66" y2="196.89" gradientTransform="translate(180.73 -42.55) rotate(45)" xlink:href="#New_Gradient_Swatch_4"/>
    <linearGradient id="New_Gradient_Swatch_4-24" data-name="New Gradient Swatch 4" x1="66.8" y1="196.89" x2="216.66" y2="196.89" gradientTransform="translate(180.73 -42.55) rotate(45)" xlink:href="#New_Gradient_Swatch_4"/>
    <linearGradient id="New_Gradient_Swatch_4-25" data-name="New Gradient Swatch 4" x1="66.8" y1="196.89" x2="216.66" y2="196.89" gradientTransform="translate(180.73 -42.55) rotate(45)" xlink:href="#New_Gradient_Swatch_4"/>
    <linearGradient id="New_Gradient_Swatch_4-26" data-name="New Gradient Swatch 4" x1="66.8" y1="196.89" x2="216.66" y2="196.89" gradientTransform="translate(180.73 -42.55) rotate(45)" xlink:href="#New_Gradient_Swatch_4"/>
    <linearGradient id="New_Gradient_Swatch_4-27" data-name="New Gradient Swatch 4" x1="66.8" y1="196.89" x2="216.66" y2="196.89" gradientTransform="translate(180.73 -42.55) rotate(45)" xlink:href="#New_Gradient_Swatch_4"/>
    <linearGradient id="New_Gradient_Swatch_4-28" data-name="New Gradient Swatch 4" x1="66.8" y1="196.89" x2="216.66" y2="196.89" gradientTransform="translate(180.73 -42.55) rotate(45)" xlink:href="#New_Gradient_Swatch_4"/>
    <linearGradient id="New_Gradient_Swatch_4-29" data-name="New Gradient Swatch 4" x1="66.8" y1="196.89" x2="216.66" y2="196.89" gradientTransform="translate(180.73 -42.55) rotate(45)" xlink:href="#New_Gradient_Swatch_4"/>
    <linearGradient id="New_Gradient_Swatch_4-30" data-name="New Gradient Swatch 4" x1="66.8" y1="196.89" x2="216.66" y2="196.89" gradientTransform="translate(180.73 -42.55) rotate(45)" xlink:href="#New_Gradient_Swatch_4"/>
    <linearGradient id="New_Gradient_Swatch_4-31" data-name="New Gradient Swatch 4" x1="66.8" y1="196.89" x2="216.66" y2="196.89" gradientTransform="translate(180.73 -42.55) rotate(45)" xlink:href="#New_Gradient_Swatch_4"/>
    <linearGradient id="New_Gradient_Swatch_4-32" data-name="New Gradient Swatch 4" x1="66.8" y1="196.89" x2="216.66" y2="196.89" gradientTransform="translate(180.73 -42.55) rotate(45)" xlink:href="#New_Gradient_Swatch_4"/>
    <linearGradient id="New_Gradient_Swatch_4-33" data-name="New Gradient Swatch 4" x1="66.8" y1="196.89" x2="216.66" y2="196.89" gradientTransform="translate(180.73 -42.55) rotate(45)" xlink:href="#New_Gradient_Swatch_4"/>
    <linearGradient id="New_Gradient_Swatch_4-34" data-name="New Gradient Swatch 4" x1="66.8" y1="196.89" x2="216.66" y2="196.89" gradientTransform="translate(180.73 -42.55) rotate(45)" xlink:href="#New_Gradient_Swatch_4"/>
    <linearGradient id="New_Gradient_Swatch_4-35" data-name="New Gradient Swatch 4" x1="66.8" y1="196.89" x2="216.66" y2="196.89" gradientTransform="translate(180.73 -42.55) rotate(45)" xlink:href="#New_Gradient_Swatch_4"/>
    <linearGradient id="New_Gradient_Swatch_4-36" data-name="New Gradient Swatch 4" x1="66.8" y1="196.89" x2="216.66" y2="196.89" gradientTransform="translate(180.73 -42.55) rotate(45)" xlink:href="#New_Gradient_Swatch_4"/>
    <linearGradient id="New_Gradient_Swatch_4-37" data-name="New Gradient Swatch 4" x1="66.8" y1="196.89" x2="216.66" y2="196.89" gradientTransform="translate(180.73 -42.55) rotate(45)" xlink:href="#New_Gradient_Swatch_4"/>
    <linearGradient id="New_Gradient_Swatch_4-38" data-name="New Gradient Swatch 4" x1="66.8" y1="196.89" x2="216.66" y2="196.89" gradientTransform="translate(180.73 -42.55) rotate(45)" xlink:href="#New_Gradient_Swatch_4"/>
    <linearGradient id="New_Gradient_Swatch_4-39" data-name="New Gradient Swatch 4" x1="66.8" y1="196.89" x2="216.66" y2="196.89" gradientTransform="translate(180.73 -42.55) rotate(45)" xlink:href="#New_Gradient_Swatch_4"/>
    <linearGradient id="New_Gradient_Swatch_4-40" data-name="New Gradient Swatch 4" x1="66.8" y1="196.89" x2="216.66" y2="196.89" gradientTransform="translate(180.73 -42.55) rotate(45)" xlink:href="#New_Gradient_Swatch_4"/>
  </defs>
  <g class="cls-39">
    <g id="Layer_1" data-name="Layer 1">
      <rect class="cls-100" y="0" width="283.46" height="283.46"/>
      <g>
        <g>
          <path class="cls-95" d="m180.17,122.58c0-21.19-17.24-38.44-38.44-38.44s-38.44,17.24-38.44,38.44,17.24,38.44,38.44,38.44c2.4,0,4.74-.22,7.02-.65,0,0,.02,0,.03,0,.02,0,.04-.01.06-.01,7.34-1.38,13.96-4.85,19.2-9.78.1-.06.18-.14.25-.23,7.32-7,11.89-16.86,11.89-27.77Zm-75.24,0c0-20.3,16.51-36.81,36.81-36.81s36.81,16.51,36.81,36.81c0,10.37-4.31,19.75-11.24,26.45-8.1-.82-14.97-6.12-18.88-14.59t0,0c-.09-.19-.17-.39-.25-.58-.63-.07-1.25-.15-1.88-.25.21.51.42,1.02.65,1.52,0,0,0,0,0,0,3.94,8.52,10.72,14.03,18.79,15.34-4.62,3.98-10.23,6.83-16.4,8.13-.42-2.13-1.8-7.67-5.11-10.17-4.17-3.17-7.9-4.04-12.47-2.92-4.82,1.18-6.44.64-6.63.2-.18-.44-.29-1.2-.39-1.93-.16-1.14-.32-2.31-.84-3.06-.24-.35-.48-.64-.68-.87-.38-.45-.46-.58-.43-.68.17-.63.44-1.08.44-1.08.19-.3.16-.69-.08-.96-.43-.5-.94-1.13-1.14-1.44.05-.14.12-.32.18-.46.34-.86.69-1.74-.02-2.24-2.09-1.46-3.3-3.07-3.21-3.53.08-.23.75-.78,1.19-1.15,1.25-1.04,2.82-2.33,2.93-4.19.02-.4.04-.86.06-1.35.09-2.6.2-6.16,1.91-9.24,1.66-3,3.31-4.72,4.9-6.38,1.27-1.32,2.46-2.57,3.57-4.35,1.24-1.98,1.61-3.84,1.07-5.24-.28-.72-.95-1.67-2.51-2.1-1.19-.33-2.5-.12-3.69.57-1.9,1.11-3.37,3.34-4.12,6.29-.51,1.99-.74,4.08-.68,6.22.03,1.22.16,2.43.37,3.63-.11.19-.22.38-.33.57-1.9,3.43-2.03,7.37-2.11,9.98-.02.48-.03.92-.05,1.31-.07,1.16-1.33,2.2-2.34,3.03-.9.74-1.61,1.33-1.75,2.09-.35,1.83,2.47,4.14,3.53,4.93-.06.18-.15.4-.21.56-.24.6-.39.99-.3,1.38.03.14.11.46,1.2,1.77-.12.26-.25.59-.35.98-.25.94.29,1.58.76,2.15.19.22.38.46.58.74.3.43.44,1.46.57,2.37.12.88.24,1.7.5,2.33.72,1.74,3.51,1.98,8.52.76,4.1-1,7.31-.24,11.1,2.64,2.82,2.14,4.09,7.22,4.49,9.17-1.95.32-3.94.49-5.98.49-20.29,0-36.81-16.51-36.81-36.81Zm20.26-14.1c-.05-1.98.16-3.92.63-5.77.65-2.52,1.84-4.4,3.36-5.28.82-.48,1.67-.62,2.44-.41.73.2,1.21.58,1.42,1.12.35.89.01,2.27-.93,3.78-1.02,1.64-2.16,2.82-3.37,4.08-1.08,1.13-2.26,2.36-3.46,4.04-.05-.52-.09-1.04-.1-1.57Z"/>
          <path class="cls-16" d="m126.6,115.81c-.27-.73-.5-1.47-.69-2.21-.06.1-.12.2-.17.31-.35.63-.62,1.29-.85,1.95.06.17.12.35.18.52,2.09,5.66,6.13,10.31,11.38,13.1,4.53,2.4,9.79,3.74,14.9,3.74,7.52,0,14.72-2.89,18.82-9.54,4.05-6.58,3.41-11.88,2.16-15.17-1.43-3.75-4.43-6.8-7.67-7.77-1.46-.44-6.64-1.65-11.77,1.36-4.14,2.42-6.94,6.82-8.34,13.07-1,4.48-.88,9.39.33,14.2.13.52.28,1.03.44,1.54-2.99-.62-5.78-1.63-8.11-2.86-4.9-2.6-8.66-6.94-10.61-12.22Zm19.87,13.14c-1.16-4.56-1.27-9.21-.32-13.44,1.29-5.79,3.84-9.83,7.57-12.01,4.56-2.67,9.17-1.6,10.48-1.2,2.26.68,5.19,3.05,6.61,6.79,1.12,2.95,1.68,7.72-2.02,13.73-4.81,7.82-13.67,9.58-21.63,8.41-.25-.75-.48-1.5-.68-2.27Z"/>
        </g>
        <g>
          <text class="cls-11" transform="translate(91.18 175.75)"><tspan class="cls-52" x="0" y="0">BE</tspan><tspan class="cls-13" x="19.61" y="0">A</tspan><tspan class="cls-52" x="30.04" y="0">UTY WITH</tspan><tspan class="cls-60" x="-21.94" y="13.14">PURPOSE </tspan><tspan class="cls-97" x="52.48" y="13.14">A</tspan><tspan class="cls-69" x="62.93" y="13.14">C</tspan><tspan class="cls-52" x="72.6" y="13.14">ADEMY</tspan></text>
          <g class="cls-91">
            <text class="cls-19" transform="translate(91.18 175.88)"><tspan class="cls-52" x="0" y="0">BE</tspan><tspan class="cls-13" x="19.61" y="0">A</tspan><tspan class="cls-52" x="30.04" y="0">UTY WITH</tspan><tspan class="cls-60" x="-21.94" y="13.14">PURPOSE </tspan><tspan class="cls-97" x="52.48" y="13.14">A</tspan><tspan class="cls-69" x="62.93" y="13.14">C</tspan><tspan class="cls-52" x="72.6" y="13.14">ADEMY</tspan></text>
          </g>
          <g>
            <path class="cls-73" d="m98.43,170.01c0,.8-.52,1.45-1.33,1.67.98.2,1.58.95,1.58,1.94,0,1.32-1.15,2.14-2.96,2.14h-3.79v-7.68h3.65c1.74,0,2.85.76,2.85,1.94Zm-2.06.35c0-.46-.35-.72-.9-.72h-1.54v1.49h1.54c.55,0,.9-.29.9-.77Zm.24,3c0-.48-.44-.79-1.14-.79h-1.54v1.62h1.54c.7,0,1.14-.31,1.14-.83Z"/>
            <path class="cls-73" d="m108.02,168.07v1.6h-4.05v1.43h3.66v1.6h-3.66v1.45h4.16v1.6h-6.17v-7.68h6.06Z"/>
            <path class="cls-73" d="m116.66,174.39h-3.32l-.54,1.36h-2.06l3.3-7.68h2.06l3.22,7.68h-2.14l-.53-1.36Zm-.59-1.53l-1.05-2.74-1.07,2.74h2.13Z"/>
            <path class="cls-73" d="m125.42,174.13c.89,0,1.5-.6,1.5-1.6v-4.46h2v4.46c0,2.03-1.36,3.31-3.52,3.31s-3.56-1.28-3.56-3.31v-4.46h2v4.46c0,.99.66,1.6,1.57,1.6Z"/>
            <path class="cls-73" d="m138.38,168.07v1.65h-2.3v6.03h-2v-6.03h-2.28v-1.65h6.58Z"/>
            <path class="cls-73" d="m145.41,173.3v2.45h-2v-2.4l-2.83-5.28h2l1.82,3.3,1.78-3.3h2l-2.77,5.23Z"/>
            <path class="cls-73" d="m157.16,168.07l1.46,5.55,1.45-5.55h1.96l1.46,5.55,1.45-5.55h2.06l-2.53,7.68h-2.07l-1.38-5.18-1.42,5.18h-2.06l-2.52-7.68h2.16Z"/>
            <path class="cls-73" d="m171.84,168.07v7.68h-2v-7.68h2Z"/>
            <path class="cls-73" d="m181.43,168.07v1.65h-2.3v6.03h-2v-6.03h-2.28v-1.65h6.58Z"/>
            <path class="cls-73" d="m186.43,168.07v3.13h3.1v-3.13h2v7.68h-2v-2.95h-3.1v2.95h-2v-7.68h2Z"/>
            <path class="cls-73" d="m76.45,183.9c0,1.81-1.13,2.86-3.09,2.86h-1.37v2.13h-2v-7.68h3.37c1.96,0,3.09.99,3.09,2.69Zm-1.91.07c0-.76-.47-1.16-1.28-1.16h-1.27v2.36h1.27c.81,0,1.28-.42,1.28-1.19Z"/>
            <path class="cls-73" d="m83.06,187.27c.89,0,1.5-.6,1.5-1.6v-4.46h2v4.46c0,2.03-1.36,3.31-3.52,3.31s-3.56-1.28-3.56-3.31v-4.46h2v4.46c0,.99.66,1.6,1.57,1.6Z"/>
            <path class="cls-73" d="m94.72,188.89l-1.12-2.13h-1.49v2.13h-2v-7.68h3.45c2.04,0,3.2.99,3.2,2.69,0,1.16-.48,2.02-1.37,2.48l1.6,2.51h-2.27Zm-2.61-3.72h1.46c.81,0,1.28-.42,1.28-1.19s-.47-1.16-1.28-1.16h-1.46v2.36Z"/>
            <path class="cls-73" d="m106.69,183.9c0,1.81-1.13,2.86-3.09,2.86h-1.37v2.13h-2v-7.68h3.37c1.96,0,3.09.99,3.09,2.69Zm-1.91.07c0-.76-.47-1.16-1.28-1.16h-1.27v2.36h1.27c.81,0,1.28-.42,1.28-1.19Z"/>
            <path class="cls-73" d="m117.68,185.04c0,2.25-1.78,3.93-4.15,3.93s-4.15-1.69-4.15-3.93,1.77-3.89,4.15-3.89,4.15,1.67,4.15,3.89Zm-6.25.01c0,1.25.98,2.21,2.11,2.21s2.07-.96,2.07-2.21-.92-2.19-2.07-2.19-2.11.94-2.11,2.19Z"/>
            <path class="cls-73" d="m123.67,182.75c-.48,0-.8.17-.8.53,0,1.27,4.04.55,4.04,3.31,0,1.57-1.38,2.37-3.09,2.37-1.28,0-2.62-.47-3.54-1.23l.78-1.57c.79.68,1.98,1.16,2.78,1.16.59,0,.96-.22.96-.63,0-1.3-4.04-.51-4.04-3.23,0-1.44,1.22-2.34,3.07-2.34,1.13,0,2.27.35,3.07.87l-.76,1.59c-.81-.46-1.84-.82-2.48-.82Z"/>
            <path class="cls-73" d="m136.18,181.21v1.6h-4.05v1.43h3.66v1.6h-3.66v1.45h4.16v1.6h-6.17v-7.68h6.06Z"/>
            <path class="cls-73" d="m149.53,187.53h-3.32l-.54,1.36h-2.06l3.3-7.68h2.06l3.22,7.68h-2.14l-.53-1.36Zm-.59-1.53l-1.05-2.74-1.07,2.74h2.13Z"/>
            <path class="cls-73" d="m158.5,182.85c-1.18,0-2.08.93-2.08,2.16s.9,2.18,2.08,2.18c.63,0,1.37-.35,1.91-.9l1.17,1.26c-.82.87-2.05,1.42-3.19,1.42-2.31,0-4.03-1.69-4.03-3.94s1.76-3.88,4.11-3.88c1.14,0,2.33.5,3.1,1.31l-1.16,1.39c-.5-.61-1.24-1.01-1.91-1.01Z"/>
            <path class="cls-73" d="m169.65,187.53h-3.32l-.54,1.36h-2.06l3.3-7.68h2.06l3.22,7.68h-2.14l-.53-1.36Zm-.59-1.53l-1.05-2.74-1.07,2.74h2.13Z"/>
            <path class="cls-73" d="m182.58,185.04c0,2.29-1.68,3.85-4.16,3.85h-3.23v-7.68h3.31c2.43,0,4.09,1.56,4.09,3.83Zm-2.05.02c0-1.33-.87-2.22-2.08-2.22h-1.26v4.43h1.36c1.16,0,1.98-.89,1.98-2.2Z"/>
            <path class="cls-73" d="m191.82,181.21v1.6h-4.05v1.43h3.66v1.6h-3.66v1.45h4.16v1.6h-6.17v-7.68h6.06Z"/>
            <path class="cls-73" d="m197.54,181.21l2.04,4.48,2.04-4.48h2.19v7.68h-1.78v-4.86s-1.8,4.1-1.8,4.1h-1.31l-1.79-4.1v4.86h-1.79v-7.68h2.19Z"/>
            <path class="cls-73" d="m211.51,186.43v2.45h-2v-2.4l-2.83-5.28h2l1.82,3.3,1.78-3.3h2l-2.77,5.23Z"/>
          </g>
          <g class="cls-21">
            <path class="cls-65" d="m98.43,170.01c0,.8-.52,1.45-1.33,1.67.98.2,1.58.95,1.58,1.94,0,1.32-1.15,2.14-2.96,2.14h-3.79v-7.68h3.65c1.74,0,2.85.76,2.85,1.94Zm-2.06.35c0-.46-.35-.72-.9-.72h-1.54v1.49h1.54c.55,0,.9-.29.9-.77Zm.24,3c0-.48-.44-.79-1.14-.79h-1.54v1.62h1.54c.7,0,1.14-.31,1.14-.83Z"/>
            <path class="cls-65" d="m108.02,168.07v1.6h-4.05v1.43h3.66v1.6h-3.66v1.45h4.16v1.6h-6.17v-7.68h6.06Z"/>
            <path class="cls-65" d="m116.66,174.39h-3.32l-.54,1.36h-2.06l3.3-7.68h2.06l3.22,7.68h-2.14l-.53-1.36Zm-.59-1.53l-1.05-2.74-1.07,2.74h2.13Z"/>
            <path class="cls-65" d="m125.42,174.13c.89,0,1.5-.6,1.5-1.6v-4.46h2v4.46c0,2.03-1.36,3.31-3.52,3.31s-3.56-1.28-3.56-3.31v-4.46h2v4.46c0,.99.66,1.6,1.57,1.6Z"/>
            <path class="cls-65" d="m138.38,168.07v1.65h-2.3v6.03h-2v-6.03h-2.28v-1.65h6.58Z"/>
            <path class="cls-65" d="m145.41,173.3v2.45h-2v-2.4l-2.83-5.28h2l1.82,3.3,1.78-3.3h2l-2.77,5.23Z"/>
            <path class="cls-65" d="m157.16,168.07l1.46,5.55,1.45-5.55h1.96l1.46,5.55,1.45-5.55h2.06l-2.53,7.68h-2.07l-1.38-5.18-1.42,5.18h-2.06l-2.52-7.68h2.16Z"/>
            <path class="cls-65" d="m171.84,168.07v7.68h-2v-7.68h2Z"/>
            <path class="cls-65" d="m181.43,168.07v1.65h-2.3v6.03h-2v-6.03h-2.28v-1.65h6.58Z"/>
            <path class="cls-65" d="m186.43,168.07v3.13h3.1v-3.13h2v7.68h-2v-2.95h-3.1v2.95h-2v-7.68h2Z"/>
            <path class="cls-65" d="m76.45,183.9c0,1.81-1.13,2.86-3.09,2.86h-1.37v2.13h-2v-7.68h3.37c1.96,0,3.09.99,3.09,2.69Zm-1.91.07c0-.76-.47-1.16-1.28-1.16h-1.27v2.36h1.27c.81,0,1.28-.42,1.28-1.19Z"/>
            <path class="cls-65" d="m83.06,187.27c.89,0,1.5-.6,1.5-1.6v-4.46h2v4.46c0,2.03-1.36,3.31-3.52,3.31s-3.56-1.28-3.56-3.31v-4.46h2v4.46c0,.99.66,1.6,1.57,1.6Z"/>
            <path class="cls-65" d="m94.72,188.89l-1.12-2.13h-1.49v2.13h-2v-7.68h3.45c2.04,0,3.2.99,3.2,2.69,0,1.16-.48,2.02-1.37,2.48l1.6,2.51h-2.27Zm-2.61-3.72h1.46c.81,0,1.28-.42,1.28-1.19s-.47-1.16-1.28-1.16h-1.46v2.36Z"/>
            <path class="cls-65" d="m106.69,183.9c0,1.81-1.13,2.86-3.09,2.86h-1.37v2.13h-2v-7.68h3.37c1.96,0,3.09.99,3.09,2.69Zm-1.91.07c0-.76-.47-1.16-1.28-1.16h-1.27v2.36h1.27c.81,0,1.28-.42,1.28-1.19Z"/>
            <path class="cls-65" d="m117.68,185.04c0,2.25-1.78,3.93-4.15,3.93s-4.15-1.69-4.15-3.93,1.77-3.89,4.15-3.89,4.15,1.67,4.15,3.89Zm-6.25.01c0,1.25.98,2.21,2.11,2.21s2.07-.96,2.07-2.21-.92-2.19-2.07-2.19-2.11.94-2.11,2.19Z"/>
            <path class="cls-65" d="m123.67,182.75c-.48,0-.8.17-.8.53,0,1.27,4.04.55,4.04,3.31,0,1.57-1.38,2.37-3.09,2.37-1.28,0-2.62-.47-3.54-1.23l.78-1.57c.79.68,1.98,1.16,2.78,1.16.59,0,.96-.22.96-.63,0-1.3-4.04-.51-4.04-3.23,0-1.44,1.22-2.34,3.07-2.34,1.13,0,2.27.35,3.07.87l-.76,1.59c-.81-.46-1.84-.82-2.48-.82Z"/>
            <path class="cls-65" d="m136.18,181.21v1.6h-4.05v1.43h3.66v1.6h-3.66v1.45h4.16v1.6h-6.17v-7.68h6.06Z"/>
            <path class="cls-65" d="m149.53,187.53h-3.32l-.54,1.36h-2.06l3.3-7.68h2.06l3.22,7.68h-2.14l-.53-1.36Zm-.59-1.53l-1.05-2.74-1.07,2.74h2.13Z"/>
            <path class="cls-65" d="m158.5,182.85c-1.18,0-2.08.93-2.08,2.16s.9,2.18,2.08,2.18c.63,0,1.37-.35,1.91-.9l1.17,1.26c-.82.87-2.05,1.42-3.19,1.42-2.31,0-4.03-1.69-4.03-3.94s1.76-3.88,4.11-3.88c1.14,0,2.33.5,3.1,1.31l-1.16,1.39c-.5-.61-1.24-1.01-1.91-1.01Z"/>
            <path class="cls-65" d="m169.65,187.53h-3.32l-.54,1.36h-2.06l3.3-7.68h2.06l3.22,7.68h-2.14l-.53-1.36Zm-.59-1.53l-1.05-2.74-1.07,2.74h2.13Z"/>
            <path class="cls-65" d="m182.58,185.04c0,2.29-1.68,3.85-4.16,3.85h-3.23v-7.68h3.31c2.43,0,4.09,1.56,4.09,3.83Zm-2.05.02c0-1.33-.87-2.22-2.08-2.22h-1.26v4.43h1.36c1.16,0,1.98-.89,1.98-2.2Z"/>
            <path class="cls-65" d="m191.82,181.21v1.6h-4.05v1.43h3.66v1.6h-3.66v1.45h4.16v1.6h-6.17v-7.68h6.06Z"/>
            <path class="cls-65" d="m197.54,181.21l2.04,4.48,2.04-4.48h2.19v7.68h-1.78v-4.86s-1.8,4.1-1.8,4.1h-1.31l-1.79-4.1v4.86h-1.79v-7.68h2.19Z"/>
            <path class="cls-65" d="m211.51,186.43v2.45h-2v-2.4l-2.83-5.28h2l1.82,3.3,1.78-3.3h2l-2.77,5.23Z"/>
          </g>
        </g>
        <g>
          <text transform="translate(66.49 198.05)"><tspan><tspan class="cls-82" x="0" y="0">- </tspan><tspan class="cls-6" x="3.29" y="0">Social Impact. Emp</tspan><tspan class="cls-9" x="65.47" y="0">ow</tspan><tspan class="cls-2" x="74.04" y="0">erment. Born </tspan><tspan class="cls-7" x="118.37" y="0">t</tspan><tspan class="cls-6" x="121.27" y="0">o </tspan><tspan class="cls-8" x="127.52" y="0">T</tspan><tspan class="cls-6" x="130.94" y="0">hri</tspan><tspan class="cls-9" x="140.21" y="0">v</tspan><tspan class="cls-2" x="143.55" y="0">e</tspan><tspan class="cls-82" x="147.2" y="0" xml:space="preserve"> -</tspan></tspan></text>
          <g class="cls-91">
            <text class="cls-18" transform="translate(66.49 198.17)"><tspan class="cls-83" x="0" y="0">- </tspan><tspan class="cls-3" x="3.29" y="0">Social Impact. Emp</tspan><tspan class="cls-1" x="65.47" y="0">ow</tspan><tspan class="cls-4" x="74.04" y="0">erment. Born </tspan><tspan class="cls-10" x="118.37" y="0">t</tspan><tspan class="cls-3" x="121.27" y="0">o </tspan><tspan class="cls-5" x="127.52" y="0">T</tspan><tspan class="cls-3" x="130.94" y="0">hri</tspan><tspan class="cls-1" x="140.21" y="0">v</tspan><tspan class="cls-4" x="143.55" y="0">e</tspan><tspan class="cls-83" x="147.2" y="0" xml:space="preserve"> -</tspan></text>
          </g>
          <g>
            <path class="cls-72" d="m67.97,196.41v.28h-1.17v-.28h1.17Z"/>
            <path class="cls-74" d="m71.07,195.66c-.26,0-.42.09-.42.27,0,.58,1.54.27,1.53,1.29,0,.54-.47.85-1.1.85-.46,0-.9-.18-1.21-.46l.23-.46c.29.26.68.42.99.42s.49-.11.49-.31c0-.6-1.54-.26-1.54-1.28,0-.5.43-.82,1.07-.82.38,0,.76.12,1.04.3l-.22.47c-.31-.18-.64-.28-.86-.28Z"/>
            <path class="cls-59" d="m76.01,196.95c0,.67-.47,1.12-1.15,1.12s-1.16-.45-1.16-1.12.47-1.11,1.16-1.11,1.15.45,1.15,1.11Zm-1.77,0c0,.39.25.66.62.66s.61-.27.61-.66-.25-.66-.61-.66-.62.27-.62.66Z"/>
            <path class="cls-92" d="m78.63,196.31c-.35,0-.6.26-.6.65s.25.65.6.65c.25,0,.46-.09.59-.26l.33.27c-.19.28-.52.44-.95.44-.65,0-1.1-.45-1.1-1.11s.45-1.12,1.11-1.12c.4,0,.72.15.92.4l-.32.31c-.14-.15-.33-.24-.57-.24Z"/>
            <path class="cls-96" d="m81.78,195.23c0,.17-.12.29-.29.29s-.29-.12-.29-.29.12-.29.29-.29.29.12.29.29Zm-.02.63v2.19h-.53v-2.19h.53Z"/>
            <path class="cls-75" d="m84.94,198.05v-.27c-.15.19-.4.29-.71.29-.47,0-.76-.29-.76-.68s.3-.65.83-.66h.64v-.06c0-.25-.17-.4-.49-.4-.21,0-.43.07-.65.2l-.19-.37c.31-.18.56-.27.96-.27.57,0,.9.29.9.78v1.43s-.52,0-.52,0Zm0-.76v-.2h-.55c-.28,0-.41.08-.41.27s.15.3.39.3c.31,0,.55-.16.58-.38Z"/>
            <path class="cls-43" d="m87.84,195.01v3.03h-.53v-3.03h.53Z"/>
            <path class="cls-23" d="m92.77,195.18v2.86h-.55v-2.86h.55Z"/>
            <path class="cls-85" d="m98.34,196.68v1.37h-.54v-1.21c0-.31-.18-.5-.48-.5-.34.01-.55.27-.55.63v1.08h-.54v-1.21c0-.31-.18-.5-.47-.5-.35.01-.56.27-.56.63v1.08h-.53v-2.19h.53v.4c.15-.29.42-.42.77-.42.38,0,.65.19.75.52.14-.36.43-.52.81-.52.49,0,.8.32.8.84Z"/>
            <path class="cls-71" d="m102.48,196.96c0,.66-.41,1.1-1.03,1.1-.33,0-.58-.13-.75-.38v1.15h-.53v-2.98h.53v.36c.16-.24.41-.38.74-.38.62,0,1.04.45,1.04,1.12Zm-.54-.02c0-.38-.25-.66-.61-.66s-.62.27-.62.66.25.66.62.66.61-.27.61-.66Z"/>
            <path class="cls-36" d="m105.46,198.05v-.27c-.15.19-.4.29-.71.29-.47,0-.76-.29-.76-.68s.3-.65.83-.66h.64v-.06c0-.25-.17-.4-.49-.4-.21,0-.43.07-.65.2l-.19-.37c.31-.18.56-.27.96-.27.57,0,.9.29.9.78v1.43s-.52,0-.52,0Zm0-.76v-.2h-.55c-.28,0-.41.08-.41.27s.15.3.39.3c.31,0,.55-.16.58-.38Z"/>
            <path class="cls-102" d="m108.74,196.31c-.35,0-.6.26-.6.65s.25.65.6.65c.25,0,.46-.09.59-.26l.33.27c-.19.28-.52.44-.95.44-.65,0-1.1-.45-1.1-1.11s.45-1.12,1.11-1.12c.4,0,.72.15.92.4l-.32.31c-.14-.15-.33-.24-.57-.24Z"/>
            <path class="cls-63" d="m112.62,197.91c-.17.1-.36.16-.55.16-.36,0-.64-.2-.64-.65v-1.08h-.31v-.39s.31,0,.31,0v-.6h.53v.6h.63v.39h-.63v.99c0,.21.08.28.23.28.09,0,.19-.03.31-.09l.12.4Z"/>
            <path class="cls-98" d="m114.68,197.79c0,.17-.12.3-.28.3s-.28-.13-.28-.3.12-.29.28-.29.28.12.28.29Z"/>
            <path class="cls-57" d="m120.99,195.18v.48h-1.55v.71h1.39v.48h-1.39v.72h1.6v.48h-2.15v-2.86h2.1Z"/>
            <path class="cls-89" d="m126.46,196.68v1.37h-.54v-1.21c0-.31-.18-.5-.48-.5-.34.01-.55.27-.55.63v1.08h-.54v-1.21c0-.31-.18-.5-.47-.5-.35.01-.56.27-.56.63v1.08h-.53v-2.19h.53v.4c.15-.29.42-.42.77-.42.38,0,.65.19.75.52.14-.36.43-.52.81-.52.49,0,.8.32.8.84Z"/>
            <path class="cls-77" d="m130.6,196.96c0,.66-.41,1.1-1.03,1.1-.33,0-.58-.13-.74-.38v1.15h-.53v-2.98h.53v.36c.16-.24.41-.38.74-.38.62,0,1.04.45,1.04,1.12Zm-.54-.02c0-.38-.25-.66-.61-.66s-.62.27-.62.66.25.66.62.66.61-.27.61-.66Z"/>
            <path class="cls-45" d="m134.4,196.95c0,.67-.47,1.12-1.15,1.12s-1.16-.45-1.16-1.12.47-1.11,1.16-1.11,1.15.45,1.15,1.11Zm-1.77,0c0,.39.25.66.62.66s.61-.27.61-.66-.25-.66-.61-.66-.62.27-.62.66Z"/>
            <path class="cls-47" d="m136.22,195.86l.54,1.65.52-1.65h.54l.53,1.65.52-1.65h.54l-.79,2.19h-.54l-.52-1.54-.52,1.54h-.54l-.8-2.18h.55Z"/>
            <path class="cls-56" d="m142.82,197.14h-1.62c.07.31.31.5.63.5.22,0,.43-.09.59-.25l.29.3c-.22.24-.54.38-.92.38-.68,0-1.13-.45-1.13-1.11s.46-1.12,1.11-1.12c.77,0,1.1.5,1.05,1.3Zm-.48-.36c-.01-.32-.23-.53-.56-.53s-.54.2-.58.53h1.15Z"/>
            <path class="cls-49" d="m145.78,195.84v.51c-.46-.03-.74.24-.74.64v1.05h-.53v-2.19h.53v.42c.15-.29.4-.44.74-.44Z"/>
            <path class="cls-38" d="m151.04,196.68v1.37h-.54v-1.21c0-.31-.18-.5-.48-.5-.34.01-.55.27-.55.63v1.08h-.54v-1.21c0-.31-.18-.5-.47-.5-.35.01-.56.27-.56.63v1.08h-.53v-2.19h.53v.4c.15-.29.42-.42.77-.42.38,0,.65.19.75.52.14-.36.43-.52.81-.52.49,0,.8.32.8.84Z"/>
            <path class="cls-25" d="m154.82,197.14h-1.62c.07.31.31.5.63.5.22,0,.43-.09.59-.25l.29.3c-.22.24-.54.38-.92.38-.68,0-1.13-.45-1.13-1.11s.46-1.12,1.11-1.12c.77,0,1.1.5,1.05,1.3Zm-.48-.36c-.01-.32-.23-.53-.56-.53s-.54.2-.58.53h1.15Z"/>
            <path class="cls-103" d="m158.64,196.68v1.37h-.54v-1.21c0-.31-.18-.49-.49-.49-.36,0-.57.27-.57.63v1.08h-.53v-2.19h.53v.41c.16-.29.43-.42.79-.43.5,0,.81.32.81.84Z"/>
            <path class="cls-104" d="m161.74,197.91c-.17.1-.36.16-.55.16-.36,0-.64-.2-.64-.65v-1.08h-.31v-.39s.31,0,.31,0v-.6h.53v.6h.63v.39h-.63v.99c0,.21.08.28.23.28.09,0,.19-.03.31-.09l.12.4Z"/>
            <path class="cls-33" d="m163.79,197.79c0,.17-.12.3-.28.3s-.28-.13-.28-.3.12-.29.28-.29.28.12.28.29Z"/>
            <path class="cls-28" d="m170.26,195.9c0,.31-.19.56-.5.63.38.07.61.34.61.72,0,.49-.41.79-1.06.79h-1.31v-2.86h1.27c.61,0,.99.27.99.72Zm-.56.1c0-.22-.17-.34-.45-.34h-.7v.7h.7c.28,0,.45-.13.45-.36Zm.1,1.19c0-.23-.21-.38-.56-.37h-.7v.76h.7c.35,0,.56-.14.56-.38Z"/>
            <path class="cls-53" d="m174.22,196.95c0,.67-.47,1.12-1.15,1.12s-1.16-.45-1.16-1.12.47-1.11,1.16-1.11,1.15.45,1.15,1.11Zm-1.77,0c0,.39.25.66.62.66s.61-.27.61-.66-.25-.66-.61-.66-.62.27-.62.66Z"/>
            <path class="cls-94" d="m177.18,195.84v.51c-.46-.03-.74.24-.74.64v1.05h-.53v-2.19h.53v.42c.15-.29.4-.44.74-.44Z"/>
            <path class="cls-76" d="m180.91,196.68v1.37h-.54v-1.21c0-.31-.18-.49-.49-.49-.36,0-.57.27-.57.63v1.08h-.53v-2.19h.53v.41c.16-.29.43-.42.79-.43.5,0,.81.32.81.84Z"/>
            <path class="cls-40" d="m186.46,197.91c-.17.1-.36.16-.55.16-.36,0-.64-.2-.64-.65v-1.08h-.31v-.39s.31,0,.31,0v-.6h.53v.6h.63v.39h-.63v.99c0,.21.09.28.23.28.09,0,.19-.03.31-.09l.12.4Z"/>
            <path class="cls-80" d="m190.19,196.95c0,.67-.47,1.12-1.15,1.12s-1.16-.45-1.16-1.12.47-1.11,1.16-1.11,1.15.45,1.15,1.11Zm-1.77,0c0,.39.25.66.62.66s.61-.27.61-.66-.25-.66-.61-.66-.62.27-.62.66Z"/>
            <path class="cls-81" d="m196.37,195.18v.49h-.89v2.38h-.55v-2.38h-.89v-.49h2.33Z"/>
            <path class="cls-32" d="m199.91,196.68v1.37h-.54v-1.21c0-.31-.18-.49-.49-.49-.36,0-.58.27-.58.63v1.08h-.53v-3.03h.53v1.26c.16-.3.43-.43.79-.44.5,0,.81.32.81.84Z"/>
            <path class="cls-31" d="m203.01,195.84v.51c-.46-.03-.74.24-.74.64v1.05h-.53v-2.19h.53v.42c.15-.29.4-.44.74-.44Z"/>
            <path class="cls-51" d="m205.16,195.23c0,.17-.12.29-.29.29s-.29-.12-.29-.29.12-.29.29-.29.29.12.29.29Zm-.02.63v2.19h-.53v-2.19h.53Z"/>
            <path class="cls-70" d="m207.25,195.86l.57,1.66.56-1.66h.54l-.83,2.19h-.55l-.84-2.18h.56Z"/>
            <path class="cls-26" d="m212.33,197.14h-1.62c.07.31.31.5.63.5.22,0,.43-.09.59-.25l.29.3c-.22.24-.54.38-.92.38-.68,0-1.13-.45-1.13-1.11s.46-1.12,1.11-1.12c.77,0,1.1.5,1.05,1.3Zm-.48-.36c-.01-.32-.23-.53-.56-.53s-.54.2-.58.53h1.15Z"/>
            <path class="cls-35" d="m216.66,196.41v.28h-1.17v-.28h1.17Z"/>
          </g>
          <g class="cls-21">
            <path class="cls-41" d="m67.97,196.41v.28h-1.17v-.28h1.17Z"/>
            <path class="cls-67" d="m71.07,195.66c-.26,0-.42.09-.42.27,0,.58,1.54.27,1.53,1.29,0,.54-.47.85-1.1.85-.46,0-.9-.18-1.21-.46l.23-.46c.29.26.68.42.99.42s.49-.11.49-.31c0-.6-1.54-.26-1.54-1.28,0-.5.43-.82,1.07-.82.38,0,.76.12,1.04.3l-.22.47c-.31-.18-.64-.28-.86-.28Z"/>
            <path class="cls-101" d="m76.01,196.95c0,.67-.47,1.12-1.15,1.12s-1.16-.45-1.16-1.12.47-1.11,1.16-1.11,1.15.45,1.15,1.11Zm-1.77,0c0,.39.25.66.62.66s.61-.27.61-.66-.25-.66-.61-.66-.62.27-.62.66Z"/>
            <path class="cls-42" d="m78.63,196.31c-.35,0-.6.26-.6.65s.25.65.6.65c.25,0,.46-.09.59-.26l.33.27c-.19.28-.52.44-.95.44-.65,0-1.1-.45-1.1-1.11s.45-1.12,1.11-1.12c.4,0,.72.15.92.4l-.32.31c-.14-.15-.33-.24-.57-.24Z"/>
            <path class="cls-46" d="m81.78,195.23c0,.17-.12.29-.29.29s-.29-.12-.29-.29.12-.29.29-.29.29.12.29.29Zm-.02.63v2.19h-.53v-2.19h.53Z"/>
            <path class="cls-22" d="m84.94,198.05v-.27c-.15.19-.4.29-.71.29-.47,0-.76-.29-.76-.68s.3-.65.83-.66h.64v-.06c0-.25-.17-.4-.49-.4-.21,0-.43.07-.65.2l-.19-.37c.31-.18.56-.27.96-.27.57,0,.9.29.9.78v1.43s-.52,0-.52,0Zm0-.76v-.2h-.55c-.28,0-.41.08-.41.27s.15.3.39.3c.31,0,.55-.16.58-.38Z"/>
            <path class="cls-78" d="m87.84,195.01v3.03h-.53v-3.03h.53Z"/>
            <path class="cls-79" d="m92.77,195.18v2.86h-.55v-2.86h.55Z"/>
            <path class="cls-99" d="m98.34,196.68v1.37h-.54v-1.21c0-.31-.18-.5-.48-.5-.34.01-.55.27-.55.63v1.08h-.54v-1.21c0-.31-.18-.5-.47-.5-.35.01-.56.27-.56.63v1.08h-.53v-2.19h.53v.4c.15-.29.42-.42.77-.42.38,0,.65.19.75.52.14-.36.43-.52.81-.52.49,0,.8.32.8.84Z"/>
            <path class="cls-86" d="m102.48,196.96c0,.66-.41,1.1-1.03,1.1-.33,0-.58-.13-.75-.38v1.15h-.53v-2.98h.53v.36c.16-.24.41-.38.74-.38.62,0,1.04.45,1.04,1.12Zm-.54-.02c0-.38-.25-.66-.61-.66s-.62.27-.62.66.25.66.62.66.61-.27.61-.66Z"/>
            <path class="cls-62" d="m105.46,198.05v-.27c-.15.19-.4.29-.71.29-.47,0-.76-.29-.76-.68s.3-.65.83-.66h.64v-.06c0-.25-.17-.4-.49-.4-.21,0-.43.07-.65.2l-.19-.37c.31-.18.56-.27.96-.27.57,0,.9.29.9.78v1.43s-.52,0-.52,0Zm0-.76v-.2h-.55c-.28,0-.41.08-.41.27s.15.3.39.3c.31,0,.55-.16.58-.38Z"/>
            <path class="cls-12" d="m108.74,196.31c-.35,0-.6.26-.6.65s.25.65.6.65c.25,0,.46-.09.59-.26l.33.27c-.19.28-.52.44-.95.44-.65,0-1.1-.45-1.1-1.11s.45-1.12,1.11-1.12c.4,0,.72.15.92.4l-.32.31c-.14-.15-.33-.24-.57-.24Z"/>
            <path class="cls-30" d="m112.62,197.91c-.17.1-.36.16-.55.16-.36,0-.64-.2-.64-.65v-1.08h-.31v-.39s.31,0,.31,0v-.6h.53v.6h.63v.39h-.63v.99c0,.21.08.28.23.28.09,0,.19-.03.31-.09l.12.4Z"/>
            <path class="cls-37" d="m114.68,197.79c0,.17-.12.3-.28.3s-.28-.13-.28-.3.12-.29.28-.29.28.12.28.29Z"/>
            <path class="cls-55" d="m120.99,195.18v.48h-1.55v.71h1.39v.48h-1.39v.72h1.6v.48h-2.15v-2.86h2.1Z"/>
            <path class="cls-68" d="m126.46,196.68v1.37h-.54v-1.21c0-.31-.18-.5-.48-.5-.34.01-.55.27-.55.63v1.08h-.54v-1.21c0-.31-.18-.5-.47-.5-.35.01-.56.27-.56.63v1.08h-.53v-2.19h.53v.4c.15-.29.42-.42.77-.42.38,0,.65.19.75.52.14-.36.43-.52.81-.52.49,0,.8.32.8.84Z"/>
            <path class="cls-84" d="m130.6,196.96c0,.66-.41,1.1-1.03,1.1-.33,0-.58-.13-.74-.38v1.15h-.53v-2.98h.53v.36c.16-.24.41-.38.74-.38.62,0,1.04.45,1.04,1.12Zm-.54-.02c0-.38-.25-.66-.61-.66s-.62.27-.62.66.25.66.62.66.61-.27.61-.66Z"/>
            <path class="cls-50" d="m134.4,196.95c0,.67-.47,1.12-1.15,1.12s-1.16-.45-1.16-1.12.47-1.11,1.16-1.11,1.15.45,1.15,1.11Zm-1.77,0c0,.39.25.66.62.66s.61-.27.61-.66-.25-.66-.61-.66-.62.27-.62.66Z"/>
            <path class="cls-88" d="m136.22,195.86l.54,1.65.52-1.65h.54l.53,1.65.52-1.65h.54l-.79,2.19h-.54l-.52-1.54-.52,1.54h-.54l-.8-2.18h.55Z"/>
            <path class="cls-90" d="m142.82,197.14h-1.62c.07.31.31.5.63.5.22,0,.43-.09.59-.25l.29.3c-.22.24-.54.38-.92.38-.68,0-1.13-.45-1.13-1.11s.46-1.12,1.11-1.12c.77,0,1.1.5,1.05,1.3Zm-.48-.36c-.01-.32-.23-.53-.56-.53s-.54.2-.58.53h1.15Z"/>
            <path class="cls-58" d="m145.78,195.84v.51c-.46-.03-.74.24-.74.64v1.05h-.53v-2.19h.53v.42c.15-.29.4-.44.74-.44Z"/>
            <path class="cls-44" d="m151.04,196.68v1.37h-.54v-1.21c0-.31-.18-.5-.48-.5-.34.01-.55.27-.55.63v1.08h-.54v-1.21c0-.31-.18-.5-.47-.5-.35.01-.56.27-.56.63v1.08h-.53v-2.19h.53v.4c.15-.29.42-.42.77-.42.38,0,.65.19.75.52.14-.36.43-.52.81-.52.49,0,.8.32.8.84Z"/>
            <path class="cls-66" d="m154.82,197.14h-1.62c.07.31.31.5.63.5.22,0,.43-.09.59-.25l.29.3c-.22.24-.54.38-.92.38-.68,0-1.13-.45-1.13-1.11s.46-1.12,1.11-1.12c.77,0,1.1.5,1.05,1.3Zm-.48-.36c-.01-.32-.23-.53-.56-.53s-.54.2-.58.53h1.15Z"/>
            <path class="cls-20" d="m158.64,196.68v1.37h-.54v-1.21c0-.31-.18-.49-.49-.49-.36,0-.57.27-.57.63v1.08h-.53v-2.19h.53v.41c.16-.29.43-.42.79-.43.5,0,.81.32.81.84Z"/>
            <path class="cls-24" d="m161.74,197.91c-.17.1-.36.16-.55.16-.36,0-.64-.2-.64-.65v-1.08h-.31v-.39s.31,0,.31,0v-.6h.53v.6h.63v.39h-.63v.99c0,.21.08.28.23.28.09,0,.19-.03.31-.09l.12.4Z"/>
            <path class="cls-48" d="m163.79,197.79c0,.17-.12.3-.28.3s-.28-.13-.28-.3.12-.29.28-.29.28.12.28.29Z"/>
            <path class="cls-54" d="m170.26,195.9c0,.31-.19.56-.5.63.38.07.61.34.61.72,0,.49-.41.79-1.06.79h-1.31v-2.86h1.27c.61,0,.99.27.99.72Zm-.56.1c0-.22-.17-.34-.45-.34h-.7v.7h.7c.28,0,.45-.13.45-.36Zm.1,1.19c0-.23-.21-.38-.56-.37h-.7v.76h.7c.35,0,.56-.14.56-.38Z"/>
            <path class="cls-14" d="m174.22,196.95c0,.67-.47,1.12-1.15,1.12s-1.16-.45-1.16-1.12.47-1.11,1.16-1.11,1.15.45,1.15,1.11Zm-1.77,0c0,.39.25.66.62.66s.61-.27.61-.66-.25-.66-.61-.66-.62.27-.62.66Z"/>
            <path class="cls-105" d="m177.18,195.84v.51c-.46-.03-.74.24-.74.64v1.05h-.53v-2.19h.53v.42c.15-.29.4-.44.74-.44Z"/>
            <path class="cls-106" d="m180.91,196.68v1.37h-.54v-1.21c0-.31-.18-.49-.49-.49-.36,0-.57.27-.57.63v1.08h-.53v-2.19h.53v.41c.16-.29.43-.42.79-.43.5,0,.81.32.81.84Z"/>
            <path class="cls-17" d="m186.46,197.91c-.17.1-.36.16-.55.16-.36,0-.64-.2-.64-.65v-1.08h-.31v-.39s.31,0,.31,0v-.6h.53v.6h.63v.39h-.63v.99c0,.21.09.28.23.28.09,0,.19-.03.31-.09l.12.4Z"/>
            <path class="cls-34" d="m190.19,196.95c0,.67-.47,1.12-1.15,1.12s-1.16-.45-1.16-1.12.47-1.11,1.16-1.11,1.15.45,1.15,1.11Zm-1.77,0c0,.39.25.66.62.66s.61-.27.61-.66-.25-.66-.61-.66-.62.27-.62.66Z"/>
            <path class="cls-93" d="m196.37,195.18v.49h-.89v2.38h-.55v-2.38h-.89v-.49h2.33Z"/>
            <path class="cls-27" d="m199.91,196.68v1.37h-.54v-1.21c0-.31-.18-.49-.49-.49-.36,0-.58.27-.58.63v1.08h-.53v-3.03h.53v1.26c.16-.3.43-.43.79-.44.5,0,.81.32.81.84Z"/>
            <path class="cls-87" d="m203.01,195.84v.51c-.46-.03-.74.24-.74.64v1.05h-.53v-2.19h.53v.42c.15-.29.4-.44.74-.44Z"/>
            <path class="cls-29" d="m205.16,195.23c0,.17-.12.29-.29.29s-.29-.12-.29-.29.12-.29.29-.29.29.12.29.29Zm-.02.63v2.19h-.53v-2.19h.53Z"/>
            <path class="cls-64" d="m207.25,195.86l.57,1.66.56-1.66h.54l-.83,2.19h-.55l-.84-2.18h.56Z"/>
            <path class="cls-61" d="m212.33,197.14h-1.62c.07.31.31.5.63.5.22,0,.43-.09.59-.25l.29.3c-.22.24-.54.38-.92.38-.68,0-1.13-.45-1.13-1.11s.46-1.12,1.11-1.12c.77,0,1.1.5,1.05,1.3Zm-.48-.36c-.01-.32-.23-.53-.56-.53s-.54.2-.58.53h1.15Z"/>
            <path class="cls-15" d="m216.66,196.41v.28h-1.17v-.28h1.17Z"/>
          </g>
        </g>
      </g>
    </g>
  </g>
</svg>